<svg width="28" height="21" viewBox="0 0 28 21" fill="none" xmlns="http://www.w3.org/2000/svg">
<path d="M26 18.0049V16.0049C25.9956 12.9975 24.8631 10.1012 22.8263 7.88849C20.7896 5.6758 17.9967 4.30779 15 4.05488V2.00488H18V0.00488281H10V2.00488H13V4.05488C10.0033 4.30779 7.21045 5.6758 5.17367 7.88849C3.13689 10.1012 2.00437 12.9975 2 16.0049V18.0049H0V20.0049H28V18.0049H26ZM14 6.00488C16.3041 6.00806 18.5367 6.80548 20.3215 8.26272C22.1062 9.71997 23.3341 11.748 23.798 14.0049H4.202C4.66595 11.748 5.89377 9.71997 7.67854 8.26272C9.46331 6.80548 11.6959 6.00806 14 6.00488ZM4 16.0049H24V18.0049H4V16.0049Z" fill="black"/>
</svg>
