<svg width="16" height="16" viewBox="0 0 16 16" fill="none" xmlns="http://www.w3.org/2000/svg">
<path d="M2.05001 4.05C0.73881 5.36368 0.00239563 7.14393 0.00239563 9C0.00239563 10.8561 0.73881 12.6363 2.05001 13.95C3.42001 15.32 5.21001 16 7.00001 16C8.79001 16 10.58 15.32 11.95 13.95C15.43 10.47 16 0 16 0C16 0 5.53001 0.57 2.05001 4.05ZM10.54 12.54C9.59001 13.48 8.34001 14 7.00001 14C6.11001 14 5.27001 13.75 4.52001 13.32C5.44001 10.44 7.14001 7.91 9.40001 6C6.77001 7.36 4.56001 9.46 3.03001 12C1.55001 10.04 1.68001 7.25 3.47001 5.46C5.21001 3.72 10.04 2.65 13.8 2.2C13.35 5.96 12.28 10.79 10.54 12.54Z" fill="black"/>
</svg>
