<svg width="44" height="44" fill="none" xmlns="http://www.w3.org/2000/svg"><path fill-rule="evenodd" clip-rule="evenodd" d="M12.93.132C15.276.024 16.024 0 22 0c5.976 0 6.724.026 9.068.132 2.344.106 3.944.48 5.344 1.022a10.824 10.824 0 0 1 3.896 2.54 10.746 10.746 0 0 1 2.536 3.894c.544 1.4.916 3 1.024 5.34.108 2.35.132 3.098.132 9.072 0 5.976-.026 6.724-.132 9.07-.106 2.34-.48 3.94-1.024 5.34a10.791 10.791 0 0 1-2.536 3.898 10.787 10.787 0 0 1-3.896 2.536c-1.4.544-3 .916-5.34 1.024-2.348.108-3.096.132-9.072.132-5.976 0-6.724-.026-9.07-.132-2.34-.106-3.94-.48-5.34-1.024a10.794 10.794 0 0 1-3.898-2.536 10.784 10.784 0 0 1-2.538-3.896c-.542-1.4-.914-3-1.022-5.34C.024 28.722 0 27.974 0 22c0-5.976.026-6.724.132-9.068.106-2.344.48-3.944 1.022-5.344a10.792 10.792 0 0 1 2.54-3.896 10.784 10.784 0 0 1 3.894-2.538c1.4-.542 3-.914 5.34-1.022h.002Zm17.96 3.96c-2.32-.106-3.016-.128-8.89-.128-5.874 0-6.57.022-8.89.128-2.146.098-3.31.456-4.086.758-1.026.4-1.76.874-2.53 1.644a6.824 6.824 0 0 0-1.644 2.53c-.302.776-.66 1.94-.758 4.086-.106 2.32-.128 3.016-.128 8.89 0 5.874.022 6.57.128 8.89.098 2.146.456 3.31.758 4.086a6.83 6.83 0 0 0 1.644 2.53 6.83 6.83 0 0 0 2.53 1.644c.776.302 1.94.66 4.086.758 2.32.106 3.014.128 8.89.128 5.876 0 6.57-.022 8.89-.128 2.146-.098 3.31-.456 4.086-.758 1.026-.4 1.76-.874 2.53-1.644a6.83 6.83 0 0 0 1.644-2.53c.302-.776.66-1.94.758-4.086.106-2.32.128-3.016.128-8.89 0-5.874-.022-6.57-.128-8.89-.098-2.146-.456-3.31-.758-4.086-.4-1.026-.874-1.76-1.644-2.53a6.826 6.826 0 0 0-2.53-1.644c-.776-.302-1.94-.66-4.086-.758Zm-11.7 24.69a7.338 7.338 0 0 0 8-11.972 7.34 7.34 0 1 0-8 11.972Zm-5.186-14.778A11.307 11.307 0 0 1 33.308 22a11.308 11.308 0 1 1-19.304-7.996Zm21.812-1.628a2.674 2.674 0 1 0-3.67-3.89 2.674 2.674 0 0 0 3.67 3.89Z" fill="#E9ECEF"/></svg>