<svg width="32" height="32" viewBox="0 0 32 32" fill="none" xmlns="http://www.w3.org/2000/svg">
<path d="M16 17.3334C18.2091 17.3334 20 15.5425 20 13.3334C20 11.1242 18.2091 9.33337 16 9.33337C13.7909 9.33337 12 11.1242 12 13.3334C12 15.5425 13.7909 17.3334 16 17.3334Z" stroke="white" stroke-width="2" stroke-linecap="round" stroke-linejoin="round"/>
<path d="M15.9999 2.66669C13.1709 2.66669 10.4578 3.79049 8.45745 5.79088C6.45706 7.79127 5.33325 10.5044 5.33325 13.3334C5.33325 15.856 5.86925 17.5067 7.33325 19.3334L15.9999 29.3334L24.6666 19.3334C26.1306 17.5067 26.6666 15.856 26.6666 13.3334C26.6666 10.5044 25.5428 7.79127 23.5424 5.79088C21.542 3.79049 18.8289 2.66669 15.9999 2.66669V2.66669Z" stroke="white" stroke-width="2" stroke-linecap="round" stroke-linejoin="round"/>
</svg>
