<svg width="94" height="64" fill="none" xmlns="http://www.w3.org/2000/svg"><g clip-path="url(#a)"><path d="M0 22.905V7.871a.75.75 0 0 1 .75-.75h3.515a.75.75 0 0 1 .75.75v14.698c0 1.637.415 2.883 1.245 3.735.83.853 1.985 1.28 3.466 1.28 1.436 0 2.57-.438 3.4-1.313.83-.875 1.245-2.11 1.245-3.702V7.87a.75.75 0 0 1 .75-.75h3.548a.75.75 0 0 1 .75.75v15.034c0 3.119-.92 5.486-2.76 7.101-1.817 1.616-4.128 2.423-6.933 2.423-2.804 0-5.127-.807-6.966-2.423C.92 28.391 0 26.024 0 22.906ZM26.937 7.164a.75.75 0 0 1 .75.75v23.828a.75.75 0 0 1-.75.75h-3.246a.75.75 0 0 1-.75-.75V7.914a.75.75 0 0 1 .75-.75h3.246ZM45.275 30.276c-1.481 1.436-3.534 2.153-6.16 2.153-2.624 0-4.689-.718-6.192-2.153-1.48-1.459-2.22-3.467-2.22-6.025V14.4a.75.75 0 0 1 .749-.75h3.246a.75.75 0 0 1 .75.75v9.851c0 1.167.325 2.098.975 2.794.651.695 1.548 1.043 2.693 1.043 1.144 0 2.041-.348 2.692-1.043.65-.696.976-1.627.976-2.794V14.4a.75.75 0 0 1 .75-.75h3.246a.75.75 0 0 1 .75.75v9.851c0 2.58-.752 4.589-2.255 6.025ZM56.66 32.463c-2.967 0-5.36-1.021-7.179-3.065a.715.715 0 0 1 .001-.936l1.552-1.842c.3-.357.85-.352 1.188-.03.51.488 1.08.897 1.712 1.229.92.448 1.84.673 2.76.673.718 0 1.312-.168 1.783-.505.494-.336.74-.763.74-1.279 0-.65-.437-1.178-1.312-1.582-.269-.112-.998-.392-2.187-.84-1.055-.382-1.84-.708-2.356-.977-2.11-1.01-3.164-2.591-3.164-4.745 0-1.593.629-2.917 1.885-3.972 1.234-1.032 2.894-1.548 4.98-1.548 2.37 0 4.359.726 5.966 2.176a.709.709 0 0 1 .07.96l-1.456 1.893c-.271.353-.785.39-1.137.119-1.106-.852-2.298-1.277-3.577-1.277-.605 0-1.11.157-1.514.47-.382.292-.572.651-.572 1.078 0 .763.538 1.324 1.615 1.683 2.4.897 3.87 1.491 4.409 1.783 2.064 1.077 3.096 2.625 3.096 4.645 0 1.727-.673 3.14-2.02 4.24-1.3 1.1-3.062 1.65-5.283 1.65ZM70.966 31.742a.75.75 0 0 1-.75.75H66.97a.75.75 0 0 1-.75-.75V7.914a.75.75 0 0 1 .75-.75h3.112a.75.75 0 0 1 .75.75v8.625c.493-.852 1.267-1.548 2.322-2.086 1.054-.539 2.21-.808 3.466-.808 1.974 0 3.657.662 5.048 1.986 1.391 1.323 2.087 3.208 2.087 5.654v10.457a.75.75 0 0 1-.75.75H79.76a.75.75 0 0 1-.75-.75v-9.178c0-1.436-.347-2.547-1.043-3.332-.673-.808-1.604-1.212-2.793-1.212-1.257 0-2.278.438-3.063 1.313-.763.852-1.144 1.963-1.144 3.332v9.077ZM48.814 55.167c.34-.135.748-.028.914.299.135.266.066.597-.195.741-.499.274-1.077.411-1.734.411-.854 0-1.503-.262-1.945-.787-.443-.535-.664-1.297-.664-2.285v-4.199h-.872a.594.594 0 0 1 0-1.188h.888V45.92a.68.68 0 0 1 1.358 0v2.239h2.354a.594.594 0 1 1 0 1.188h-2.354v4.338c0 1.112.453 1.667 1.358 1.667.284 0 .581-.061.892-.185ZM52.089 55.73a.687.687 0 0 1-1.374 0v-6.923a.648.648 0 0 1 1.297 0v.587c.473-.968 1.27-1.451 2.392-1.451.13 0 .266.008.41.025.316.037.526.335.496.653-.037.406-.442.663-.849.65h-.072c-.69 0-1.245.236-1.667.71-.422.462-.633 1.126-.633 1.99v3.76ZM62.33 49.378v-.555a.664.664 0 1 1 1.327 0v6.93a.664.664 0 1 1-1.327 0v-.524c-.752.926-1.734 1.39-2.949 1.39-1.194 0-2.181-.418-2.964-1.251-.782-.844-1.173-1.889-1.173-3.134 0-1.245.391-2.264 1.173-3.056.782-.813 1.77-1.22 2.964-1.22 1.204 0 2.187.474 2.949 1.42Zm.108 2.902c0-.843-.273-1.564-.818-2.16-.536-.598-1.235-.896-2.1-.896-.864 0-1.564.298-2.1.895-.524.587-.787 1.312-.787 2.177 0 .854.263 1.58.788 2.176.545.587 1.245.88 2.1.88.853 0 1.553-.293 2.099-.88.545-.607.818-1.337.818-2.192ZM68.69 54.457l2.404-5.872a.686.686 0 1 1 1.262.536l-3.03 6.857a.71.71 0 0 1-1.3 0l-3.027-6.846a.693.693 0 1 1 1.275-.544l2.417 5.869ZM80.966 52.141c0 .114-.016.355-.047.726h-6.622c.123.751.432 1.348.926 1.79.494.443 1.173.665 2.038.665a4.78 4.78 0 0 0 1.512-.263c.291-.095.562-.205.814-.33.328-.165.745-.07.923.253.147.267.08.604-.181.762a6.026 6.026 0 0 1-3.1.859c-.987 0-1.82-.216-2.5-.649-.68-.432-1.163-.962-1.451-1.59a5.043 5.043 0 0 1-.432-2.099c0-1.245.386-2.274 1.157-3.087.772-.813 1.77-1.22 2.995-1.22 1.163 0 2.115.376 2.856 1.127.741.751 1.112 1.77 1.112 3.056Zm-2.223-2.269c-.463-.442-1.045-.663-1.745-.663-.7 0-1.296.226-1.79.679-.494.442-.798 1.024-.911 1.744h5.217c-.04-.73-.298-1.317-.771-1.76ZM82.986 44.732c.38 0 .687.307.687.687V55.73a.687.687 0 0 1-1.374 0V45.419c0-.38.307-.687.687-.687Z" fill="#181818"/><path fill-rule="evenodd" clip-rule="evenodd" d="M52.47 1a1 1 0 0 1 1-1h20.176c11.212 0 20.301 9.09 20.301 20.301 0 11.212-9.09 20.301-20.302 20.301h-24.19c-5.865 0-10.62 4.754-10.62 10.62 0 5.864 4.755 10.618 10.62 10.618H62.87a1 1 0 1 1 0 1.999H49.455c-6.969 0-12.618-5.65-12.618-12.618 0-6.969 5.65-12.618 12.618-12.618h24.19c10.109 0 18.303-8.194 18.303-18.302 0-10.108-8.194-18.302-18.302-18.302H53.469a1 1 0 0 1-.999-1Z" fill="#181818"/><path fill-rule="evenodd" clip-rule="evenodd" d="M52.47 1a1 1 0 0 1 1-1h20.176c11.212 0 20.301 9.09 20.301 20.301 0 11.212-9.09 20.301-20.302 20.301h-24.19c-5.865 0-10.62 4.754-10.62 10.62 0 5.864 4.755 10.618 10.62 10.618H62.87a1 1 0 1 1 0 1.999H49.455c-6.969 0-12.618-5.65-12.618-12.618 0-6.969 5.65-12.618 12.618-12.618h24.19c10.109 0 18.303-8.194 18.303-18.302 0-10.108-8.194-18.302-18.302-18.302H53.469a1 1 0 0 1-.999-1Z" fill="url(#b)"/></g><defs><linearGradient id="b" x1="65.361" y1=".035" x2="65.361" y2="74.832" gradientUnits="userSpaceOnUse"><stop stop-color="#FF971C"/><stop offset="1" stop-color="#ED3B02"/></linearGradient><clipPath id="a"><path fill="#fff" d="M0 0h94v63.923H0z"/></clipPath></defs></svg>