<svg width="32" height="32" viewBox="0 0 32 32" fill="none" xmlns="http://www.w3.org/2000/svg">
<path d="M10.6667 14.6667C11.5897 14.6667 12.4919 14.393 13.2594 13.8802C14.0268 13.3674 14.6249 12.6386 14.9781 11.7859C15.3314 10.9331 15.4238 9.99483 15.2437 9.08959C15.0636 8.18434 14.6192 7.35282 13.9665 6.70018C13.3139 6.04753 12.4824 5.60308 11.5771 5.42301C10.6719 5.24295 9.73357 5.33536 8.88085 5.68857C8.02813 6.04178 7.2993 6.63992 6.78652 7.40735C6.27374 8.17478 6.00004 9.07703 6.00004 10C6.00004 11.2377 6.49171 12.4247 7.36688 13.2998C8.24205 14.175 9.42903 14.6667 10.6667 14.6667ZM10.6667 8.00001C11.0623 8.00001 11.449 8.11731 11.7778 8.33707C12.1067 8.55683 12.3631 8.86919 12.5145 9.23464C12.6658 9.6001 12.7055 10.0022 12.6283 10.3902C12.5511 10.7782 12.3606 11.1345 12.0809 11.4142C11.8012 11.6939 11.4449 11.8844 11.0569 11.9616C10.6689 12.0388 10.2668 11.9991 9.90134 11.8478C9.53589 11.6964 9.22353 11.44 9.00377 11.1112C8.78401 10.7823 8.66671 10.3956 8.66671 10C8.66671 9.46958 8.87742 8.96087 9.25249 8.5858C9.62757 8.21072 10.1363 8.00001 10.6667 8.00001ZM21.3334 18.6667C20.4104 18.6667 19.5081 18.9404 18.7407 19.4532C17.9733 19.9659 17.3751 20.6948 17.0219 21.5475C16.6687 22.4002 16.5763 23.3385 16.7564 24.2438C16.9364 25.149 17.3809 25.9805 18.0335 26.6332C18.6862 27.2858 19.5177 27.7303 20.423 27.9103C21.3282 28.0904 22.2665 27.998 23.1192 27.6448C23.972 27.2916 24.7008 26.6934 25.2136 25.926C25.7263 25.1586 26 24.2563 26 23.3333C26 22.0957 25.5084 20.9087 24.6332 20.0335C23.758 19.1583 22.5711 18.6667 21.3334 18.6667ZM21.3334 25.3333C20.9378 25.3333 20.5511 25.216 20.2222 24.9963C19.8933 24.7765 19.637 24.4642 19.4856 24.0987C19.3342 23.7333 19.2946 23.3311 19.3718 22.9432C19.449 22.5552 19.6395 22.1988 19.9192 21.9191C20.1989 21.6394 20.5552 21.4489 20.9432 21.3718C21.3312 21.2946 21.7333 21.3342 22.0987 21.4856C22.4642 21.637 22.7766 21.8933 22.9963 22.2222C23.2161 22.5511 23.3334 22.9378 23.3334 23.3333C23.3334 23.8638 23.1227 24.3725 22.7476 24.7476C22.3725 25.1226 21.8638 25.3333 21.3334 25.3333ZM26.32 5.68001C26.2098 5.56955 26.0789 5.48191 25.9347 5.42212C25.7906 5.36232 25.6361 5.33154 25.48 5.33154C25.324 5.33154 25.1695 5.36232 25.0253 5.42212C24.8812 5.48191 24.7503 5.56955 24.64 5.68001L5.68004 24.64C5.46004 24.8645 5.33576 25.1657 5.33338 25.48C5.33302 25.715 5.40242 25.9448 5.53279 26.1402C5.66316 26.3357 5.84862 26.4881 6.06568 26.578C6.28274 26.668 6.52162 26.6915 6.75204 26.6456C6.98247 26.5996 7.19408 26.4863 7.36004 26.32L26.32 7.36001C26.4305 7.24979 26.5181 7.11886 26.5779 6.97472C26.6377 6.83058 26.6685 6.67606 26.6685 6.52001C26.6685 6.36396 26.6377 6.20944 26.5779 6.0653C26.5181 5.92117 26.4305 5.79024 26.32 5.68001Z" fill="#36716D"/>
</svg>
