<svg width="40" height="41" fill="none" xmlns="http://www.w3.org/2000/svg"><path d="M38 11.25a9 9 0 0 1-9-9 1.5 1.5 0 0 0-1.5-1.5H20a1.5 1.5 0 0 0-1.5 1.5v24a3.751 3.751 0 1 1-5.363-3.394 1.48 1.48 0 0 0 .863-1.35v-7.8a1.463 1.463 0 0 0-.544-1.162 1.5 1.5 0 0 0-1.218-.319A14.25 14.25 0 1 0 29 26.25v-6.694a19.35 19.35 0 0 0 9 2.194 1.5 1.5 0 0 0 1.5-1.5v-7.5a1.5 1.5 0 0 0-1.5-1.5Zm-1.5 7.425a16.388 16.388 0 0 1-8.119-3.019A1.52 1.52 0 0 0 26 16.875v9.375a11.25 11.25 0 1 1-15-10.613v5.007a6.75 6.75 0 1 0 10.5 5.606V3.75h4.594A12.019 12.019 0 0 0 36.5 14.156v4.519Z" fill="#000"/></svg>