<svg width="32" height="32" viewBox="0 0 32 32" fill="none" xmlns="http://www.w3.org/2000/svg">
<path d="M16 2.66669C8.64796 2.66669 2.66663 8.64802 2.66663 16C2.66663 23.352 8.64796 29.3334 16 29.3334C23.352 29.3334 29.3333 23.352 29.3333 16C29.3333 8.64802 23.352 2.66669 16 2.66669ZM16 26.6667C10.1186 26.6667 5.33329 21.8814 5.33329 16C5.33329 10.1187 10.1186 5.33335 16 5.33335C21.8813 5.33335 26.6666 10.1187 26.6666 16C26.6666 21.8814 21.8813 26.6667 16 26.6667Z" fill="white"/>
<path d="M17.3333 9.33331H14.6666V16.552L19.0573 20.9426L20.9426 19.0573L17.3333 15.448V9.33331Z" fill="white"/>
</svg>
